<svg width="29" height="29" viewBox="0 0 29 29" fill="none" xmlns="http://www.w3.org/2000/svg">
<path d="M16.2047 0.924225V2.85266C18.1121 2.85266 19.899 3.33477 21.5655 4.29898C23.1516 5.24312 24.4165 6.50865 25.3601 8.09559C26.3239 9.76289 26.8057 11.5507 26.8057 13.4591H28.7332C28.7332 11.1891 28.161 9.0799 27.0166 7.13138C25.9123 5.24312 24.4165 3.74657 22.5292 2.64173C20.5817 1.49672 18.4735 0.924225 16.2047 0.924225ZM6.23616 3.81688C5.69406 3.81688 5.22224 3.98762 4.82068 4.32912L1.71868 7.49296L1.80903 7.43269C1.30709 7.85454 0.975805 8.37683 0.815183 8.99955C0.67464 9.62227 0.714795 10.2249 0.935649 10.8075C1.49783 12.3743 2.25074 13.9814 3.19439 15.6286C4.51952 17.8985 6.09562 19.9374 7.92269 21.7453C10.854 24.6983 14.4981 27.0284 18.855 28.7359H18.8851C19.4673 28.9368 20.0496 28.977 20.6318 28.8564C21.2342 28.7359 21.7662 28.4748 22.228 28.073L25.2698 25.0297C25.6713 24.6279 25.8721 24.1358 25.8721 23.5532C25.8721 22.9506 25.6713 22.4484 25.2698 22.0467L21.3245 18.0693C20.923 17.6675 20.421 17.4666 19.8187 17.4666C19.2164 17.4666 18.7144 17.6675 18.3129 18.0693L16.4155 19.9977C14.8896 19.2745 13.5645 18.3806 12.4402 17.316C11.3158 16.2312 10.4223 14.9155 9.75979 13.3687L11.6872 11.4402C12.1089 10.9983 12.3197 10.476 12.3197 9.87337C12.3197 9.25065 12.0788 8.74846 11.5969 8.36679L11.6872 8.45718L7.65164 4.32912C7.25008 3.98762 6.77826 3.81688 6.23616 3.81688ZM16.2047 4.78109V6.70953C17.4295 6.70953 18.5538 7.01085 19.5778 7.61349C20.6218 8.21612 21.445 9.03973 22.0473 10.0843C22.6497 11.1088 22.9508 12.2337 22.9508 13.4591H24.8783C24.8783 11.8922 24.4868 10.4359 23.7037 9.08994C22.9207 7.78423 21.8767 6.73966 20.5716 5.95624C19.2264 5.17281 17.7708 4.78109 16.2047 4.78109ZM6.23616 5.74531C6.29639 5.74531 6.36666 5.77544 6.44698 5.83571L10.3922 9.87337C10.4123 9.95372 10.3922 10.0241 10.332 10.0843L7.47094 12.9167L7.68175 13.5193L8.07327 14.363C8.39451 15.046 8.76595 15.7089 9.18758 16.3517C9.76983 17.2557 10.4123 18.0291 11.115 18.6719C12.0587 19.5959 13.1931 20.4396 14.5182 21.203C15.1808 21.5846 15.7429 21.8659 16.2047 22.0467L16.807 22.3178L19.7284 19.3951C19.7685 19.3549 19.7986 19.3348 19.8187 19.3348C19.8388 19.3348 19.8689 19.3549 19.9091 19.3951L23.9748 23.4628C24.0149 23.503 24.035 23.5332 24.035 23.5532C24.035 23.5532 24.0149 23.5733 23.9748 23.6135L20.9631 26.5966C20.5214 26.9782 20.0396 27.0787 19.5175 26.8979C15.4217 25.3109 12.0085 23.1414 9.27793 20.3894C7.5914 18.702 6.11569 16.7836 4.8508 14.6342C3.9473 13.0875 3.24459 11.5909 2.74264 10.1446V10.1144C2.66233 9.93364 2.65229 9.72271 2.71253 9.48166C2.77276 9.22052 2.88319 9.01964 3.04381 8.87902L6.02534 5.83571C6.08558 5.77544 6.15585 5.74531 6.23616 5.74531ZM16.2047 8.63797V10.5664C17.0078 10.5664 17.6905 10.8477 18.2526 11.4101C18.8148 11.9726 19.0959 12.6556 19.0959 13.4591H21.0234C21.0234 12.5953 20.8025 11.7918 20.3608 11.0485C19.9392 10.3053 19.3569 9.72271 18.614 9.30087C17.8712 8.85893 17.0681 8.63797 16.2047 8.63797Z" fill="#70A1FF"/>
</svg>
